<?xml version="1.0" encoding="utf-8"?>
<!-- Generator: Adobe Illustrator 24.1.2, SVG Export Plug-In . SVG Version: 6.00 Build 0)  -->
<svg version="1.1" id="Слой_1" xmlns="http://www.w3.org/2000/svg" xmlns:xlink="http://www.w3.org/1999/xlink" x="0px" y="0px"
	 viewBox="0 0 20 20" style="enable-background:new 0 0 20 20;" xml:space="preserve">
<style type="text/css">
	.st0{fill:#74A2B2;}
</style>
<path class="st0" d="M17.7,16.4c1-1.2,1.7-2.7,2.1-4.3c0.3-1.6,0.3-3.2-0.1-4.7c-0.4-1.5-1.2-3-2.3-4.2c-1.1-1.2-2.4-2.1-4-2.6
	C11.9,0,10.3-0.1,8.7,0.1C7.1,0.3,5.6,0.9,4.2,1.8S1.9,4,1.1,5.4C0.4,6.8,0,8.4,0,10c0,2.3,0.8,4.6,2.3,6.4l0,0
	c0.1,0.1,0.1,0.1,0.2,0.2c0.1,0.1,0.1,0.1,0.2,0.2c0.2,0.2,0.4,0.4,0.6,0.6c0.1,0.1,0.1,0.1,0.2,0.2C3.7,17.8,4,18,4.2,18.1
	c0,0,0.1,0,0.1,0.1v0C6,19.4,8,20,10,20c2,0,4-0.6,5.7-1.8v0c0,0,0.1-0.1,0.1-0.1c0.2-0.2,0.5-0.4,0.7-0.6c0.1-0.1,0.1-0.1,0.2-0.2
	c0.2-0.2,0.4-0.4,0.6-0.6c0.1-0.1,0.1-0.1,0.2-0.2C17.6,16.5,17.7,16.5,17.7,16.4L17.7,16.4z M10,4.3c0.6,0,1.3,0.2,1.8,0.5
	s0.9,0.9,1.2,1.4c0.2,0.6,0.3,1.2,0.2,1.9c-0.1,0.6-0.4,1.2-0.9,1.6c-0.4,0.4-1,0.8-1.6,0.9c-0.6,0.1-1.3,0.1-1.9-0.2
	c-0.6-0.2-1.1-0.7-1.4-1.2C7,8.8,6.8,8.1,6.8,7.5c0-0.9,0.3-1.7,0.9-2.3C8.3,4.6,9.2,4.3,10,4.3z M4.6,16.7
	c-0.2-0.2-0.4-0.5-0.3-0.7c0.1-0.8,0.5-1.5,1-2c0.7-0.7,1.6-1,2.5-1h4.3c0.9,0,1.8,0.4,2.5,1c0.6,0.6,0.9,1.3,1,2
	c0,0.3-0.1,0.6-0.3,0.7c-1.5,1.2-3.4,1.9-5.4,1.9C8,18.6,6.2,17.9,4.6,16.7z"/>
</svg>
