<?xml version="1.0" encoding="utf-8"?>
<!-- Generator: Adobe Illustrator 24.1.2, SVG Export Plug-In . SVG Version: 6.00 Build 0)  -->
<svg version="1.1" id="Слой_1" xmlns="http://www.w3.org/2000/svg" xmlns:xlink="http://www.w3.org/1999/xlink" x="0px" y="0px"
	 viewBox="0 0 20 18.1" style="enable-background:new 0 0 20 18.1;" xml:space="preserve">
<style type="text/css">
	.st0{fill:#74A2B2;}
</style>
<path class="st0" d="M7.8,17v-4.4c0-0.6,0.4-1,1-1h2.3c0.6,0,1,0.4,1,1V17c0,0.6,0.5,1.1,1.1,1.1h3.3c0.6,0,1.1-0.5,1.1-1.1v-6.6
	c0-0.6,0.4-1,1-1h0.8c0.5,0,0.7-0.6,0.4-0.9l-9.1-8.2c-0.4-0.4-1-0.4-1.5,0L0.2,8.5C-0.2,8.8,0,9.4,0.5,9.4h0.8c0.6,0,1,0.4,1,1V17
	c0,0.6,0.5,1.1,1.1,1.1h3.3C7.3,18.1,7.8,17.6,7.8,17z"/>
</svg>
