<?xml version="1.0" encoding="utf-8"?>
<!-- Generator: Adobe Illustrator 24.1.2, SVG Export Plug-In . SVG Version: 6.00 Build 0)  -->
<svg version="1.1" id="Слой_1" xmlns="http://www.w3.org/2000/svg" xmlns:xlink="http://www.w3.org/1999/xlink" x="0px" y="0px"
	 viewBox="0 0 16.5 20" style="enable-background:new 0 0 16.5 20;" xml:space="preserve">
<style type="text/css">
	.st0{fill:#74A2B2;}
</style>
<path class="st0" d="M0,2.5c0-0.7,0.3-1.3,0.7-1.8C1.2,0.3,1.8,0,2.5,0H14c0.3,0,0.7,0.1,1,0.2c0.3,0.1,0.6,0.3,0.8,0.5
	C16,1,16.2,1.2,16.3,1.5c0.1,0.3,0.2,0.6,0.2,1v14.2c0,0.2-0.1,0.4-0.2,0.5c-0.1,0.1-0.3,0.2-0.5,0.2H2.3c-0.4,0-0.8,0.4-0.5,0.7
	c0.2,0.2,0.4,0.3,0.7,0.3h13.3c0.2,0,0.4,0.1,0.5,0.2c0.1,0.1,0.2,0.3,0.2,0.5s-0.1,0.4-0.2,0.5c-0.1,0.1-0.3,0.2-0.5,0.2H2.5
	c-0.7,0-1.3-0.3-1.8-0.7C0.3,18.8,0,18.2,0,17.5V2.5z M8.3,6C8.5,6,8.8,5.9,9,5.7C9.1,5.5,9.3,5.3,9.3,5c0-0.3-0.1-0.5-0.3-0.7
	C8.8,4.1,8.5,4,8.3,4S7.7,4.1,7.5,4.3C7.4,4.5,7.3,4.7,7.3,5c0,0.3,0.1,0.5,0.3,0.7C7.7,5.9,8,6,8.3,6z M7.5,7.7v5
	c0,0.2,0.1,0.4,0.2,0.5c0.1,0.1,0.3,0.2,0.5,0.2s0.4-0.1,0.5-0.2C8.9,13.1,9,12.9,9,12.7v-5c0-0.2-0.1-0.4-0.2-0.5
	C8.6,7.1,8.4,7,8.3,7S7.9,7.1,7.7,7.2C7.6,7.4,7.5,7.6,7.5,7.7z"/>
</svg>
